<?xml version="1.0" encoding="utf-8"?>
<!-- Generator: Adobe Illustrator 26.0.2, SVG Export Plug-In . SVG Version: 6.00 Build 0)  -->
<svg version="1.1" id="Layer_1" xmlns="http://www.w3.org/2000/svg" xmlns:xlink="http://www.w3.org/1999/xlink" x="0px" y="0px"
	 viewBox="0 0 425.2 425.2" style="enable-background:new 0 0 425.2 425.2;" xml:space="preserve">
<style type="text/css">
	.st0{fill:#5156A5;}
</style>
<g>
	<g>
		<path class="st0" d="M144,189.74c-10.21,0-20.54-2.73-29.85-8.47c-2.27-1.4-2.98-4.37-1.58-6.64s4.37-2.98,6.64-1.58
			c22.26,13.72,51.54,6.76,65.26-15.5c13.72-22.26,6.77-51.54-15.5-65.26c-10.79-6.65-23.51-8.69-35.84-5.77
			c-12.33,2.93-22.77,10.48-29.42,21.26c-1.4,2.27-4.37,2.98-6.64,1.58c-2.27-1.4-2.98-4.37-1.58-6.64
			c8-12.98,20.57-22.07,35.41-25.59s30.15-1.06,43.14,6.94c12.98,8,22.07,20.57,25.59,35.41c3.52,14.83,1.06,30.15-6.94,43.14
			C181.92,180.1,163.17,189.74,144,189.74z"/>
	</g>
	<g>
		<path class="st0" d="M96.95,112.34c-2.44,0-4.54-1.85-4.8-4.33l-2.35-22.49c-0.28-2.65,1.65-5.03,4.3-5.3
			c2.65-0.27,5.03,1.65,5.3,4.3l1.85,17.69l17.69-1.85c2.66-0.27,5.03,1.65,5.3,4.3c0.28,2.65-1.65,5.03-4.3,5.3l-22.49,2.35
			C97.29,112.33,97.12,112.34,96.95,112.34z"/>
	</g>
	<g>
		<g>
			<g>
				<path d="M415.14,142.69h-78.46c1.71,9.44,5.59,16.33,11.65,20.67c6.06,4.35,12.65,6.52,19.78,6.52c11,0,20.21-4.57,27.64-13.71
					l14.15,10.7c-10.62,13.75-24.85,20.62-42.68,20.62c-13.67,0-25.11-4.68-34.32-14.04s-13.82-20.99-13.82-34.88
					c0-13,4.66-24.28,13.99-33.82c9.32-9.55,20.71-14.32,34.16-14.32c13.22,0,24.55,4.85,33.99,14.54
					C410.65,114.66,415.29,127.24,415.14,142.69z M338.69,127.2h56.17c-6.24-12.63-15.45-18.95-27.64-18.95
					C353.92,108.26,344.41,114.57,338.69,127.2z"/>
			</g>
		</g>
		<g>
			<g>
				<path d="M82.77,233.68l25.72,60.98l27.17-57.08h16.92l-45.19,94.5l-24.63-58.67L58.14,331.3l-45.08-93.72H30l27.32,56.53
					L82.77,233.68z"/>
			</g>
			<g>
				<path d="M259.35,287.28h-78.46c1.71,9.44,5.59,16.33,11.65,20.67c6.06,4.35,12.65,6.52,19.78,6.52c11,0,20.21-4.57,27.64-13.71
					l14.15,10.7c-10.62,13.75-24.85,20.62-42.68,20.62c-13.67,0-25.11-4.68-34.32-14.04s-13.82-20.99-13.82-34.88
					c0-13,4.66-24.28,13.99-33.82c9.32-9.55,20.71-14.32,34.16-14.32c13.22,0,24.55,4.85,33.99,14.54
					C254.85,259.26,259.5,271.83,259.35,287.28z M182.9,271.79h56.17c-6.24-12.63-15.45-18.95-27.64-18.95
					C198.13,252.85,188.62,259.16,182.9,271.79z"/>
			</g>
			<g>
				<path d="M365.61,249.29c-8.74-9.51-19.05-14.27-30.93-14.27c-15.38,0-27.19,6.91-35.45,20.72V118.52
					c0-7.73-2.95-14.34-8.86-19.85c-5.89-5.51-13.01-8.26-21.34-8.26c-5.55,0-10.62,1.45-15.14,4.3
					c-4.54,2.87-9.59,7.39-15.16,13.55V93h-18.95v91.92h19.17v-50.03c0-7.73,2.34-14.32,7.03-19.78s10.26-8.19,16.71-8.19
					c4.97,0,9.08,1.62,12.31,4.9c3.24,3.26,4.85,7.39,4.85,12.36v60.73h0.24v144.61h19.15v-19.39c3.79,6.76,9.01,12.1,15.62,16.03
					c6.59,3.94,13.59,5.92,20.93,5.92c11.44,0,21.47-4.88,30.04-14.66c8.6-9.78,12.87-21.2,12.87-34.26
					C378.7,270.08,374.33,258.78,365.61,249.29z M349.34,304.78c-5.92,6.01-12.94,9.03-21.13,9.03c-8.84,0-16.27-2.95-22.33-8.86
					c-6.06-5.92-9.08-13.16-9.08-21.78c0-8.26,3.02-15.4,9.08-21.47c6.06-6.06,13.21-9.08,21.47-9.08c8.52,0,15.82,2.99,21.83,8.98
					c6.01,5.96,9.03,13.16,9.03,21.56C358.2,291.55,355.25,298.77,349.34,304.78z"/>
			</g>
		</g>
		<g>
			<rect x="279.85" y="184.92" width="0.24" height="144.61"/>
		</g>
	</g>
</g>
</svg>
