<svg xmlns="http://www.w3.org/2000/svg" width="591" height="591" viewBox="0 0 591 591">
  <defs>
    <style>
      .cls-1 {
        fill: #8e8686;
      }

      .cls-1, .cls-2, .cls-3, .cls-4, .cls-5, .cls-6 {
        fill-rule: evenodd;
      }

      .cls-2, .cls-3 {
        fill: #625353;
      }

      .cls-3 {
        opacity: 0.4;
      }

      .cls-4, .cls-5 {
        fill: #403838;
      }

      .cls-4 {
        opacity: 0.8;
      }
    </style>
  </defs>
  <path id="muur" class="cls-1" d="M159.378,130.158L431.628,18.753V461.664L159.378,572.255v-442.1Z"/>
  <path id="onderste_luik" data-name="onderste luik" class="cls-2" d="M402.011,336.469l0.48,108.8L196.318,529.27l2.214-111.079Z"/>
  <path id="middelste_luik" data-name="middelste luik" class="cls-3" d="M402.011,193.943l0.48,108.8L196.318,386.744l2.214-111.08Z"/>
  <path id="bovenste_luik" data-name="bovenste luik" class="cls-2" d="M402.011,53.279l0.48,108.8L196.318,246.081,198.532,135Z"/>
  <path id="open_luik" data-name="open luik" class="cls-4" d="M199,386l202-82,104,42L318,423Z"/>
  <path id="hendel" class="cls-5" d="M301.812,259.878c15.676-6.563,21.534-8.245,22.743-4.217,1.324,4.41,7.561-1.017,13.38-2.718a20.838,20.838,0,0,0-6.315-1.468,31.66,31.66,0,0,0,3.492-5.277c-5.82,1.7-12.056,7.129-13.381,2.718-1.209-4.029-7.067-2.346-22.743,4.216s-20.983,9.555-18.962,13.243c2.213,4.039-6.031,4.673-11.326,7.626a31.577,31.577,0,0,0,6.21,1.215,20.823,20.823,0,0,0-3.387,5.53c5.3-2.952,13.539-3.587,11.327-7.626C280.829,269.432,286.137,266.44,301.812,259.878Z"/>
  <path id="Arrow_5_1" data-name="Arrow 5 1" class="cls-6" d="M363.237,236.914a106.955,106.955,0,0,1,98.33,63.331c1.239-7.093,1.884-11.162,4.9-13.193,1.628,15.809,4.986,33.891,2.171,56.163-3.208-22.093-12.925-36.23-24.011-44.071,3.791-1.167,6.973-.543,13.277,2.93A102.866,102.866,0,0,0,363.262,241Q363.25,238.958,363.237,236.914Z"/>
  <path id="Arrow_5_1_copy" data-name="Arrow 5 1 copy" class="cls-6" d="M215.237,297.914a106.955,106.955,0,0,1,98.33,63.331c1.239-7.093,1.884-11.162,4.9-13.193,1.628,15.809,4.986,33.891,2.171,56.163-3.208-22.093-12.925-36.23-24.011-44.071,3.791-1.167,6.973-.543,13.277,2.93A102.866,102.866,0,0,0,215.262,302Q215.25,299.958,215.237,297.914Z"/>
</svg>
