<?xml version="1.0" encoding="utf-8"?>
<!-- Generator: Adobe Illustrator 26.0.3, SVG Export Plug-In . SVG Version: 6.00 Build 0)  -->
<svg version="1.1" id="Layer_1" xmlns="http://www.w3.org/2000/svg" xmlns:xlink="http://www.w3.org/1999/xlink" x="0px" y="0px"
	 viewBox="0 0 425.2 425.2" style="enable-background:new 0 0 425.2 425.2;" xml:space="preserve">
<style type="text/css">
	.st0{fill:#2D2D2D;}
	.st1{fill:#981D55;}
</style>
<g>
	<path class="st0" d="M24.21,178.67c0.09-0.15,0.21-0.36,0.36-0.62c0.15-0.26,0.5-0.76,1.06-1.5c0.55-0.74,1.15-1.44,1.79-2.12
		c0.64-0.67,1.47-1.42,2.49-2.25c1.02-0.83,2.08-1.54,3.18-2.14c1.1-0.6,2.38-1.1,3.86-1.5c1.48-0.4,3-0.6,4.56-0.6
		c1.76,0,3.25,0.24,4.48,0.72c1.23,0.48,2.17,1.18,2.82,2.1s1.12,1.96,1.4,3.11c0.28,1.15,0.42,2.51,0.42,4.07
		c0,1.83-0.39,5.66-1.17,11.51c-0.15,1.04-0.23,2.09-0.23,3.13c0,1.65,0.2,3.18,0.59,4.58c0.39,1.4,0.86,2.52,1.42,3.34
		c0.55,0.83,1.11,1.54,1.66,2.14c0.55,0.6,1.03,1.01,1.42,1.22l0.59,0.36v-0.13c0-2.02,0.32-4.22,0.96-6.6
		c0.64-2.38,1.47-4.67,2.49-6.86c1.02-2.19,2.15-4.38,3.37-6.57c1.23-2.18,2.46-4.16,3.7-5.93c1.24-1.77,2.37-3.35,3.39-4.74
		c1.02-1.39,1.85-2.47,2.48-3.23l0.98-1.14c2.3,0.11,3.9,0.2,4.79,0.26c0.61,0.06,0.91,0.28,0.91,0.65l-0.13,0.46
		c-2.37,2.56-4.5,5.3-6.39,8.2c-1.89,2.9-3.4,5.62-4.53,8.17c-1.13,2.54-2.12,5.06-2.97,7.55c-0.85,2.49-1.49,4.71-1.94,6.67
		s-0.85,3.69-1.21,5.21c-0.36,1.52-0.7,2.69-1.03,3.5c-0.33,0.82-0.71,1.22-1.14,1.22h-0.03l-0.03-0.03
		c-0.11-0.02-0.68-0.07-1.73-0.15c-1.04-0.08-1.92-0.16-2.62-0.25c-0.71-0.09-1.69-0.28-2.95-0.57c-1.26-0.29-2.34-0.64-3.23-1.04
		c-0.89-0.4-1.87-0.97-2.93-1.71c-1.07-0.74-1.93-1.59-2.61-2.54c-0.67-0.96-1.24-2.16-1.69-3.6c-0.46-1.44-0.68-3.05-0.68-4.81
		c0-0.54,0.01-0.96,0.03-1.24c0.13-2.54,0.54-5.13,1.22-7.77c0.68-2.64,1.39-4.82,2.12-6.54c0.73-1.72,1.39-3.34,1.97-4.87
		c0.59-1.53,0.88-2.61,0.88-3.24c0-0.85-0.51-1.27-1.53-1.27c-0.56,0-1.28,0.11-2.15,0.33c-1.63,0.41-3.03,1.06-4.2,1.94
		c-1.17,0.88-2.04,1.8-2.61,2.77c-0.57,0.97-1.03,1.9-1.39,2.8c-0.36,0.9-0.67,1.65-0.93,2.23c-0.26,0.59-0.54,0.88-0.85,0.88
		c-0.09,0-0.19-0.03-0.29-0.1c-0.63-0.3-1.63-0.74-3-1.32c-1.37-0.57-2.58-1.08-3.62-1.52L24.21,178.67z"/>
	<path class="st0" d="M82.55,181.73h0.1h0.2c3.04,0.04,5.43,0.77,7.15,2.17c1.73,1.4,2.59,3.1,2.59,5.1v0.52
		c-0.06,0.87-0.29,1.89-0.67,3.06c-0.38,1.17-0.97,2.45-1.78,3.81c-0.8,1.37-1.74,2.62-2.82,3.77c-1.08,1.14-2.42,2.09-4.04,2.85
		c-1.62,0.76-3.35,1.14-5.2,1.14c-1.24,0-2.5-0.26-3.8-0.77c-1.29-0.51-2.45-1.37-3.46-2.57c-1.01-1.21-1.52-2.64-1.52-4.29
		c0-0.26,0.01-0.47,0.03-0.62c0.2-2.39,0.68-4.51,1.47-6.37c0.78-1.86,1.78-3.34,3-4.45c1.22-1.11,2.56-1.94,4.03-2.51
		C79.31,182.01,80.88,181.73,82.55,181.73z M85.72,185.87c-1.07,0-2.07,0.23-3.01,0.68c-0.95,0.46-1.73,1.03-2.36,1.73
		c-0.63,0.7-1.18,1.46-1.65,2.3c-0.47,0.84-0.81,1.61-1.03,2.33c-0.22,0.72-0.35,1.35-0.39,1.89c0,0.04-0.01,0.13-0.02,0.26
		c-0.01,0.13-0.02,0.22-0.02,0.26c0,1.37,0.4,2.58,1.21,3.63c0.8,1.05,2,1.58,3.59,1.58c1.02,0,2.02-0.4,2.98-1.21
		c0.97-0.8,1.78-1.79,2.43-2.95c0.65-1.16,1.18-2.33,1.6-3.5c0.41-1.17,0.65-2.19,0.72-3.06v-0.42c0-1.28-0.42-2.19-1.26-2.72
		C87.67,186.14,86.74,185.87,85.72,185.87z"/>
	<path class="st0" d="M115.54,182.32c2.63,0,3.94,1.29,3.94,3.88c0,1.22-0.28,2.72-0.85,4.51c-0.57,1.79-1.14,3.43-1.71,4.91
		c-0.58,1.48-0.86,2.43-0.86,2.87c0,0.33,0.12,0.49,0.36,0.49c0.96,0,2.25-0.51,3.88-1.52c1.63-1.01,3.02-2.03,4.17-3.05l1.73-1.53
		c0.22-0.04,0.41-0.07,0.59-0.07c0.24,0,0.36,0.05,0.36,0.16c0,0.04-0.01,0.08-0.03,0.1c-0.3,0.57-0.73,1.26-1.29,2.09
		c-0.55,0.83-1.3,1.78-2.23,2.85c-0.93,1.08-1.92,2.06-2.95,2.95c-1.03,0.89-2.21,1.65-3.52,2.26c-1.31,0.62-2.59,0.93-3.83,0.93
		c-3.02,0-4.53-1.42-4.53-4.27c0-1.48,0.48-3.71,1.43-6.7c0.96-2.99,1.43-4.82,1.43-5.49c0-0.76-0.29-1.14-0.88-1.14
		c-1.15,0-2.2,0.32-3.15,0.96c-0.95,0.64-1.73,1.47-2.35,2.49c-0.62,1.02-1.18,2.15-1.7,3.39c-0.51,1.24-0.95,2.49-1.32,3.75
		c-0.37,1.26-0.72,2.41-1.06,3.44c-0.34,1.03-0.7,1.89-1.08,2.56c-0.38,0.67-0.79,1.03-1.22,1.08c-1.13,0.09-2.04,0.13-2.74,0.13
		c-2.8,0-4.2-0.29-4.2-0.88c0-0.93,0.53-3.51,1.58-7.74c1.05-4.23,2.27-8.69,3.63-13.38h8.96l-1.53,5.54
		c0.13-0.15,0.33-0.35,0.59-0.6c0.26-0.25,0.79-0.7,1.58-1.34c0.79-0.64,1.6-1.21,2.41-1.7c0.82-0.49,1.81-0.93,2.98-1.34
		C113.32,182.52,114.46,182.32,115.54,182.32z"/>
	<path class="st0" d="M152.08,167c0.72,0,1.86,0.13,3.44,0.39c1.58,0.26,2.36,0.57,2.36,0.91v0.06c-0.04,0.2-1.59,4.44-4.63,12.73
		c-3.04,8.29-4.66,12.96-4.86,14c-0.11,0.59-0.16,1.04-0.16,1.37c0,1.33,0.67,2.02,2.02,2.09c0.48,0,1.34-0.48,2.59-1.45
		c1.25-0.97,2.38-1.93,3.41-2.88l1.5-1.43l0.78,0.03c0.04,0,0.06,0.03,0.06,0.1c0,0.28-0.48,1.02-1.45,2.2
		c-0.97,1.18-2.14,2.46-3.52,3.81c-1.38,1.36-2.97,2.57-4.78,3.65c-1.8,1.08-3.42,1.61-4.86,1.61c-1.8,0-3.08-0.77-3.81-2.31
		c-2.24,1.52-4.64,2.28-7.2,2.28c-0.85,0-1.73-0.14-2.64-0.42c-0.91-0.28-1.78-0.7-2.61-1.24s-1.5-1.28-2.04-2.2
		c-0.53-0.92-0.8-1.96-0.8-3.11c0-0.46,0.02-0.8,0.06-1.04c0.63-4.54,2.22-7.97,4.76-10.3c2.54-2.33,5.51-3.5,8.9-3.52h0.1h0.2
		c1.65,0.02,3.14,0.28,4.47,0.78c1.48-4.5,3.02-8.31,4.61-11.43C149.59,168.56,150.95,167,152.08,167z M141.49,186.36
		c-1.09,0-2.09,0.14-3,0.41c-0.91,0.27-1.66,0.6-2.25,0.99c-0.59,0.39-1.12,0.91-1.6,1.55c-0.48,0.64-0.84,1.2-1.08,1.68
		c-0.24,0.48-0.46,1.09-0.65,1.83c-0.2,0.74-0.32,1.27-0.37,1.58c-0.05,0.32-0.11,0.76-0.18,1.32c-0.04,0.43-0.07,0.75-0.07,0.95
		c0,2.65,1.58,3.98,4.73,3.98c0.91,0,1.79-0.3,2.64-0.91v-0.39c0-0.26,0.02-0.54,0.06-0.85c0.26-2.93,1.14-6.95,2.64-12.06
		C141.98,186.38,141.68,186.36,141.49,186.36z"/>
	<path class="st0" d="M170.99,182.51h0.13c2,0,3.62,0.32,4.86,0.96c1.24,0.64,1.86,1.6,1.86,2.88c0,0.11-0.02,0.32-0.06,0.62
		c-0.13,0.93-0.55,1.8-1.27,2.59c-0.72,0.79-1.55,1.43-2.49,1.91c-0.95,0.48-1.87,0.85-2.79,1.11c-0.91,0.26-1.7,0.39-2.35,0.39
		c-0.76,0-1.38-0.06-1.86-0.18c-0.48-0.12-0.77-0.23-0.88-0.34l-0.16-0.2c-0.26,0-0.56,0.52-0.91,1.55
		c-0.35,1.03-0.58,1.86-0.68,2.49c0,0.04-0.02,0.15-0.05,0.31c-0.03,0.16-0.06,0.33-0.08,0.5c-0.02,0.17-0.03,0.34-0.03,0.49
		c0,1.56,0.87,2.35,2.61,2.35c0.96,0,2.53-0.59,4.71-1.78c2.18-1.18,4.13-2.37,5.85-3.57l2.54-1.79l0.75,0.03
		c-0.13,0.93-1.33,2.33-3.59,4.17c-2.26,1.85-4.86,3.53-7.79,5.04c-2.93,1.51-5.27,2.27-7.01,2.27c-1.76,0-3.25-0.56-4.47-1.68
		c-1.22-1.12-1.83-2.6-1.83-4.45c0-0.39,0.03-0.79,0.1-1.21c0.3-2,0.84-3.83,1.6-5.49c0.76-1.66,1.65-3.04,2.66-4.12
		c1.01-1.09,2.14-2,3.37-2.74c1.24-0.74,2.46-1.28,3.67-1.61C168.59,182.68,169.79,182.51,170.99,182.51z M172.32,186.39
		c-1.15,0-2.37,0.54-3.67,1.61c-1.29,1.08-2,2.08-2.14,3.02c0.17,0,0.41-0.02,0.72-0.05c0.3-0.03,0.85-0.11,1.63-0.24
		c0.78-0.13,1.48-0.29,2.09-0.49c0.61-0.2,1.18-0.49,1.73-0.88c0.54-0.39,0.85-0.82,0.91-1.3c0-0.02,0-0.07,0.02-0.13
		c0.01-0.07,0.02-0.11,0.02-0.13c0-0.43-0.14-0.78-0.42-1.03C172.92,186.52,172.63,186.39,172.32,186.39z"/>
	<path class="st0" d="M190.71,167c0.72,0,1.86,0.13,3.44,0.39c1.58,0.26,2.36,0.57,2.36,0.91l-0.03,0.06
		c-0.04,0.2-1.58,4.44-4.61,12.73s-4.64,12.96-4.84,14c-0.11,0.59-0.16,1.04-0.16,1.37c0,0.67,0.15,1.19,0.46,1.53
		c0.3,0.35,0.81,0.53,1.53,0.55h0.03c0.48,0,1.34-0.48,2.59-1.45c1.25-0.97,2.37-1.93,3.37-2.88l1.53-1.43l0.78,0.03
		c0.04,0,0.07,0.03,0.07,0.1c0,0.28-0.48,1.02-1.45,2.2c-0.97,1.18-2.14,2.46-3.52,3.81c-1.38,1.36-2.97,2.57-4.78,3.65
		c-1.8,1.08-3.42,1.61-4.86,1.61c-0.85,0-1.58-0.16-2.18-0.49c-0.61-0.33-1.06-0.75-1.35-1.29c-0.29-0.53-0.5-1.05-0.62-1.55
		c-0.12-0.5-0.18-1.01-0.18-1.53c0-0.26,0.02-0.54,0.06-0.85c0.26-3,1.12-6.99,2.57-11.96c1.46-4.98,3.13-9.47,5.04-13.49
		C187.87,169.01,189.45,167,190.71,167z"/>
	<path class="st0" d="M203.45,182.28c0.3,0,0.68,0.03,1.12,0.08s0.7,0.08,0.77,0.08c0.48,0.06,0.95,0.21,1.42,0.44
		c0.47,0.23,0.7,0.52,0.7,0.86v0.07c-0.02,0.22-0.67,1.89-1.94,5.02c-1.27,3.13-1.95,5.22-2.04,6.26c-0.02,0.2-0.03,0.48-0.03,0.85
		c0,0.85,0.17,1.49,0.51,1.92c0.34,0.43,0.9,0.66,1.68,0.68h0.03c0.48,0,1.3-0.48,2.46-1.45c1.16-0.97,2.21-1.93,3.15-2.88
		l1.37-1.43l0.78,0.03c0.04,0,0.07,0.03,0.07,0.1c0,0.33-0.43,1.08-1.29,2.25c-0.86,1.17-1.92,2.44-3.18,3.8
		c-1.26,1.36-2.74,2.57-4.45,3.63s-3.27,1.6-4.68,1.6c-0.93,0-1.74-0.2-2.41-0.59c-0.67-0.39-1.17-0.88-1.48-1.48
		c-0.32-0.6-0.54-1.17-0.68-1.71s-0.21-1.06-0.21-1.57v-0.36c0.35-2.78,0.79-5.19,1.32-7.24c0.53-2.04,1.07-3.62,1.61-4.74
		c0.54-1.12,1.16-2.01,1.84-2.67c0.68-0.66,1.29-1.09,1.83-1.27C202.24,182.38,202.82,182.28,203.45,182.28z M204.27,173.58
		c4.22,0,6.32,0.39,6.32,1.17c0,0.91-0.17,1.74-0.52,2.48c-0.35,0.74-0.77,1.32-1.26,1.73c-0.49,0.41-1.03,0.76-1.63,1.04
		c-0.6,0.28-1.11,0.47-1.55,0.57c-0.43,0.1-0.8,0.15-1.11,0.15c-0.57,0-0.97-0.33-1.22-0.98c-0.25-0.65-0.37-1.37-0.37-2.15
		c0-0.37,0.11-0.89,0.33-1.57c0.22-0.67,0.43-1.25,0.65-1.73L204.27,173.58z"/>
	<path class="st0" d="M233.57,182.32c2.63,0,3.94,1.29,3.94,3.88c0,1.22-0.28,2.72-0.85,4.51c-0.57,1.79-1.14,3.43-1.71,4.91
		c-0.58,1.48-0.86,2.43-0.86,2.87c0,0.33,0.12,0.49,0.36,0.49c0.96,0,2.25-0.51,3.88-1.52c1.63-1.01,3.02-2.03,4.17-3.05l1.73-1.53
		c0.22-0.04,0.41-0.07,0.59-0.07c0.24,0,0.36,0.05,0.36,0.16c0,0.04-0.01,0.08-0.03,0.1c-0.3,0.57-0.73,1.26-1.29,2.09
		c-0.55,0.83-1.3,1.78-2.23,2.85c-0.93,1.08-1.92,2.06-2.95,2.95c-1.03,0.89-2.21,1.65-3.52,2.26c-1.31,0.62-2.59,0.93-3.83,0.93
		c-3.02,0-4.53-1.42-4.53-4.27c0-1.48,0.48-3.71,1.43-6.7c0.96-2.99,1.43-4.82,1.43-5.49c0-0.76-0.29-1.14-0.88-1.14
		c-1.15,0-2.2,0.32-3.15,0.96c-0.95,0.64-1.73,1.47-2.35,2.49c-0.62,1.02-1.18,2.15-1.7,3.39c-0.51,1.24-0.95,2.49-1.32,3.75
		c-0.37,1.26-0.72,2.41-1.06,3.44c-0.34,1.03-0.7,1.89-1.08,2.56c-0.38,0.67-0.79,1.03-1.22,1.08c-1.13,0.09-2.04,0.13-2.74,0.13
		c-2.8,0-4.2-0.29-4.2-0.88c0-0.93,0.53-3.51,1.58-7.74c1.05-4.23,2.27-8.69,3.63-13.38h8.96l-1.53,5.54
		c0.13-0.15,0.33-0.35,0.59-0.6c0.26-0.25,0.79-0.7,1.58-1.34c0.79-0.64,1.6-1.21,2.41-1.7c0.82-0.49,1.81-0.93,2.98-1.34
		S232.48,182.32,233.57,182.32z"/>
	<path class="st0" d="M266.03,181.6c2.24,0.07,3.77,0.19,4.58,0.36c0.82,0.17,1.26,0.6,1.32,1.27v0.07c0,0.46-0.23,1.75-0.7,3.88
		c-0.47,2.13-1.1,4.71-1.89,7.76c-0.79,3.04-1.75,6.25-2.88,9.63c-1.13,3.38-2.29,6.51-3.49,9.39c-1.2,2.88-2.5,5.26-3.91,7.15
		c-1.41,1.89-2.75,2.84-4.01,2.84c-1.69,0-3.28-0.15-4.74-0.44c-1.47-0.29-2.7-0.68-3.7-1.16c-1-0.48-1.91-1.01-2.74-1.58
		c-0.83-0.58-1.48-1.16-1.96-1.74c-0.48-0.59-0.88-1.12-1.21-1.6s-0.54-0.87-0.65-1.17l-0.2-0.42c0.09,0.09,0.22,0.2,0.39,0.33
		c0.17,0.13,0.54,0.37,1.11,0.73c0.57,0.36,1.14,0.67,1.73,0.95c0.59,0.27,1.32,0.52,2.2,0.73c0.88,0.22,1.74,0.33,2.59,0.33
		c0.85,0,1.66-0.3,2.44-0.91c0.78-0.61,1.49-1.39,2.12-2.33s1.26-2.16,1.89-3.65c0.63-1.49,1.18-2.95,1.66-4.37
		c0.48-1.42,0.99-3.08,1.53-4.97c-1.83,1-3.76,1.5-5.8,1.5c-0.87,0-1.78-0.15-2.74-0.46c-0.96-0.3-1.88-0.74-2.77-1.3
		c-0.89-0.56-1.62-1.34-2.18-2.33c-0.57-0.99-0.85-2.09-0.85-3.31c0-0.26,0.01-0.47,0.03-0.62c0.24-3.09,0.99-5.69,2.27-7.81
		c1.27-2.12,2.8-3.64,4.6-4.58c1.79-0.93,3.79-1.41,5.98-1.43h0.1h0.2c2.8,0.02,5.1,0.71,6.88,2.05
		C264.17,182.52,265.1,181.6,266.03,181.6z M259.16,186.36c-1.26,0-2.4,0.19-3.42,0.55c-1.02,0.37-1.85,0.88-2.48,1.53
		s-1.16,1.32-1.6,1.99c-0.43,0.67-0.77,1.44-0.99,2.3c-0.23,0.86-0.39,1.54-0.47,2.05c-0.09,0.51-0.15,1.05-0.2,1.61v0.39
		c0,1.2,0.45,2.14,1.34,2.82c0.89,0.68,2.29,1.03,4.2,1.03c0.98,0,1.94-0.39,2.9-1.17c1.8-6.54,3-10.6,3.59-12.19
		C261.27,186.66,260.31,186.36,259.16,186.36z"/>
	<path class="st0" d="M288.82,182.51h0.13c2,0,3.62,0.32,4.86,0.96c1.24,0.64,1.86,1.6,1.86,2.88c0,0.11-0.02,0.32-0.06,0.62
		c-0.13,0.93-0.55,1.8-1.27,2.59c-0.72,0.79-1.55,1.43-2.49,1.91c-0.95,0.48-1.87,0.85-2.79,1.11c-0.91,0.26-1.7,0.39-2.35,0.39
		c-0.76,0-1.38-0.06-1.86-0.18c-0.48-0.12-0.77-0.23-0.88-0.34l-0.16-0.2c-0.26,0-0.56,0.52-0.91,1.55
		c-0.35,1.03-0.58,1.86-0.68,2.49c0,0.04-0.02,0.15-0.05,0.31c-0.03,0.16-0.06,0.33-0.08,0.5c-0.02,0.17-0.03,0.34-0.03,0.49
		c0,1.56,0.87,2.35,2.61,2.35c0.96,0,2.53-0.59,4.71-1.78c2.18-1.18,4.13-2.37,5.85-3.57l2.54-1.79l0.75,0.03
		c-0.13,0.93-1.33,2.33-3.59,4.17c-2.26,1.85-4.86,3.53-7.79,5.04c-2.93,1.51-5.27,2.27-7.01,2.27c-1.76,0-3.25-0.56-4.47-1.68
		c-1.22-1.12-1.83-2.6-1.83-4.45c0-0.39,0.03-0.79,0.1-1.21c0.3-2,0.84-3.83,1.6-5.49c0.76-1.66,1.65-3.04,2.66-4.12
		c1.01-1.09,2.14-2,3.37-2.74c1.24-0.74,2.46-1.28,3.67-1.61S287.62,182.51,288.82,182.51z M290.16,186.39
		c-1.15,0-2.37,0.54-3.67,1.61c-1.29,1.08-2,2.08-2.14,3.02c0.17,0,0.41-0.02,0.72-0.05c0.3-0.03,0.85-0.11,1.63-0.24
		c0.78-0.13,1.48-0.29,2.09-0.49c0.61-0.2,1.18-0.49,1.73-0.88c0.54-0.39,0.85-0.82,0.91-1.3c0-0.02,0-0.07,0.02-0.13
		c0.01-0.07,0.02-0.11,0.02-0.13c0-0.43-0.14-0.78-0.42-1.03C290.75,186.52,290.46,186.39,290.16,186.39z"/>
	<path class="st0" d="M318.64,182.32c2.63,0,3.94,1.29,3.94,3.88c0,1.22-0.28,2.72-0.85,4.51c-0.57,1.79-1.14,3.43-1.71,4.91
		c-0.58,1.48-0.86,2.43-0.86,2.87c0,0.33,0.12,0.49,0.36,0.49c0.96,0,2.25-0.51,3.88-1.52c1.63-1.01,3.02-2.03,4.17-3.05l1.73-1.53
		c0.22-0.04,0.41-0.07,0.59-0.07c0.24,0,0.36,0.05,0.36,0.16c0,0.04-0.01,0.08-0.03,0.1c-0.3,0.57-0.73,1.26-1.29,2.09
		c-0.55,0.83-1.3,1.78-2.23,2.85c-0.93,1.08-1.92,2.06-2.95,2.95c-1.03,0.89-2.21,1.65-3.52,2.26c-1.31,0.62-2.59,0.93-3.83,0.93
		c-3.02,0-4.53-1.42-4.53-4.27c0-1.48,0.48-3.71,1.43-6.7c0.96-2.99,1.43-4.82,1.43-5.49c0-0.76-0.29-1.14-0.88-1.14
		c-1.15,0-2.2,0.32-3.15,0.96c-0.95,0.64-1.73,1.47-2.35,2.49c-0.62,1.02-1.18,2.15-1.7,3.39c-0.51,1.24-0.95,2.49-1.32,3.75
		c-0.37,1.26-0.72,2.41-1.06,3.44s-0.7,1.89-1.08,2.56c-0.38,0.67-0.79,1.03-1.22,1.08c-1.13,0.09-2.04,0.13-2.74,0.13
		c-2.8,0-4.2-0.29-4.2-0.88c0-0.93,0.53-3.51,1.58-7.74c1.05-4.23,2.27-8.69,3.63-13.38h8.96l-1.53,5.54
		c0.13-0.15,0.33-0.35,0.59-0.6c0.26-0.25,0.79-0.7,1.58-1.34c0.79-0.64,1.6-1.21,2.41-1.7c0.82-0.49,1.81-0.93,2.98-1.34
		S317.56,182.32,318.64,182.32z"/>
</g>
<g>
	<path class="st0" d="M51.45,223.58c0.72,0,1.86,0.13,3.44,0.39c1.58,0.26,2.36,0.57,2.36,0.91l-0.03,0.06
		c-0.04,0.2-1.58,4.44-4.61,12.73c-3.03,8.29-4.64,12.96-4.84,14c-0.11,0.59-0.16,1.04-0.16,1.37c0,0.67,0.15,1.19,0.46,1.53
		c0.3,0.35,0.81,0.53,1.53,0.55h0.03c0.48,0,1.34-0.48,2.59-1.45c1.25-0.97,2.37-1.93,3.37-2.88l1.53-1.43l0.78,0.03
		c0.04,0,0.07,0.03,0.07,0.1c0,0.28-0.48,1.02-1.45,2.2c-0.97,1.19-2.14,2.46-3.52,3.81c-1.38,1.36-2.97,2.57-4.78,3.65
		c-1.8,1.07-3.42,1.61-4.86,1.61c-0.85,0-1.58-0.16-2.18-0.49c-0.61-0.33-1.06-0.75-1.35-1.29c-0.29-0.53-0.5-1.05-0.62-1.55
		c-0.12-0.5-0.18-1.01-0.18-1.53c0-0.26,0.02-0.54,0.06-0.85c0.26-3,1.12-6.99,2.57-11.96c1.46-4.98,3.13-9.48,5.04-13.5
		C48.61,225.59,50.19,223.58,51.45,223.58z"/>
	<path class="st0" d="M64.32,238.86c0.3,0,0.68,0.03,1.12,0.08c0.45,0.05,0.7,0.08,0.77,0.08c0.48,0.07,0.95,0.21,1.42,0.44
		c0.47,0.23,0.7,0.52,0.7,0.86v0.07c-0.02,0.22-0.67,1.89-1.94,5.02c-1.27,3.13-1.95,5.22-2.04,6.26c-0.02,0.2-0.03,0.48-0.03,0.85
		c0,0.85,0.17,1.49,0.51,1.92c0.34,0.43,0.9,0.66,1.68,0.68h0.03c0.5,0,1.41-0.61,2.74-1.82c0.37-2.48,0.81-4.63,1.34-6.45
		c0.52-1.83,1.05-3.23,1.58-4.22c0.53-0.99,1.12-1.78,1.78-2.38c0.65-0.6,1.23-0.98,1.74-1.14c0.51-0.16,1.06-0.24,1.65-0.24
		c0.3,0,0.68,0.03,1.12,0.08c0.45,0.05,0.7,0.08,0.77,0.08c0.48,0.07,0.95,0.21,1.42,0.44c0.47,0.23,0.7,0.52,0.7,0.86v0.07
		c-0.02,0.22-0.67,1.89-1.94,5.02c-1.27,3.13-1.95,5.22-2.04,6.26c-0.02,0.2-0.03,0.48-0.03,0.85c0,0.85,0.17,1.49,0.51,1.92
		c0.34,0.43,0.9,0.66,1.68,0.68h0.03c0.48,0,1.3-0.48,2.46-1.45c1.16-0.97,2.21-1.93,3.15-2.88l1.4-1.43l0.75,0.03
		c0.04,0,0.07,0.03,0.07,0.1c0,0.33-0.43,1.07-1.29,2.25c-0.86,1.17-1.92,2.44-3.18,3.8c-1.26,1.36-2.74,2.57-4.45,3.64
		c-1.71,1.06-3.27,1.6-4.68,1.6c-1.52,0-2.65-0.47-3.39-1.4c-0.74-0.94-1.18-2-1.34-3.2c-3.11,3.06-5.8,4.6-8.08,4.6h-0.23
		c-0.74-0.05-1.41-0.21-2-0.49c-0.6-0.28-1.07-0.62-1.4-1.01c-0.34-0.39-0.61-0.83-0.83-1.32s-0.36-0.94-0.44-1.35
		c-0.08-0.41-0.11-0.8-0.11-1.17v-0.36c0.35-2.78,0.79-5.19,1.32-7.24c0.53-2.04,1.07-3.62,1.61-4.74c0.54-1.12,1.16-2.01,1.84-2.67
		c0.68-0.66,1.29-1.09,1.83-1.27C63.11,238.96,63.69,238.86,64.32,238.86z"/>
	<path class="st0" d="M93.33,238.86c0.3,0,0.68,0.03,1.12,0.08c0.45,0.05,0.7,0.08,0.77,0.08c0.48,0.07,0.95,0.21,1.42,0.44
		c0.47,0.23,0.7,0.52,0.7,0.86v0.07c-0.02,0.22-0.67,1.89-1.94,5.02c-1.27,3.13-1.95,5.22-2.04,6.26c-0.02,0.2-0.03,0.48-0.03,0.85
		c0,0.85,0.17,1.49,0.51,1.92c0.34,0.43,0.9,0.66,1.68,0.68h0.03c0.48,0,1.3-0.48,2.46-1.45c1.16-0.97,2.21-1.93,3.15-2.88
		l1.37-1.43l0.78,0.03c0.04,0,0.07,0.03,0.07,0.1c0,0.33-0.43,1.07-1.29,2.25c-0.86,1.17-1.92,2.44-3.18,3.8s-2.74,2.57-4.45,3.64
		c-1.71,1.06-3.27,1.6-4.68,1.6c-0.93,0-1.74-0.2-2.41-0.59c-0.67-0.39-1.17-0.88-1.48-1.48c-0.32-0.6-0.54-1.17-0.68-1.71
		c-0.14-0.54-0.21-1.06-0.21-1.57v-0.36c0.35-2.78,0.79-5.19,1.32-7.24c0.53-2.04,1.07-3.62,1.61-4.74
		c0.54-1.12,1.16-2.01,1.84-2.67c0.68-0.66,1.29-1.09,1.83-1.27C92.12,238.96,92.7,238.86,93.33,238.86z M94.15,230.16
		c4.22,0,6.32,0.39,6.32,1.17c0,0.91-0.17,1.74-0.52,2.48c-0.35,0.74-0.77,1.32-1.26,1.73c-0.49,0.41-1.03,0.76-1.63,1.04
		c-0.6,0.28-1.11,0.47-1.55,0.57c-0.43,0.1-0.8,0.15-1.11,0.15c-0.57,0-0.97-0.33-1.22-0.98c-0.25-0.65-0.37-1.37-0.37-2.15
		c0-0.37,0.11-0.89,0.33-1.57c0.22-0.67,0.43-1.25,0.65-1.73L94.15,230.16z"/>
	<path class="st0" d="M115.79,224.68h0.23c1.54,0.06,2.63,0.99,3.26,2.77c-0.24,0-0.59,0.44-1.06,1.3
		c-0.47,0.87-1.07,2.28-1.81,4.22c-0.74,1.94-1.39,3.7-1.96,5.26c-0.57,1.56-1.36,3.79-2.38,6.68c1.54-1.59,3.31-2.99,5.3-4.22
		c1.99-1.23,3.81-1.84,5.46-1.84c0.72,0,1.45,0.09,2.2,0.26c0.75,0.17,1.12,0.44,1.12,0.78v0.07c-0.11,0.72-0.7,1.62-1.76,2.71
		c-1.07,1.09-2.21,2.09-3.42,3c-1.22,0.91-2.34,1.79-3.37,2.64c-1.03,0.85-1.57,1.41-1.61,1.7c-0.02,0.13-0.03,0.35-0.03,0.65
		c0,1.26,0.29,2.57,0.86,3.94c0.57,1.37,1.22,2.05,1.94,2.05c0.63,0,2.52-1.21,5.67-3.64c3.15-2.42,4.81-3.63,4.99-3.63h0.42
		c-0.04,0.8-0.95,2.12-2.72,3.94c-1.77,1.83-3.79,3.5-6.05,5.04c-2.26,1.53-4,2.3-5.22,2.3c-2.26,0-3.86-0.74-4.81-2.22
		c-0.95-1.48-1.42-3.61-1.42-6.39V252l-2.84,8.54h-7.17c-0.2,0-0.29-0.18-0.29-0.55c0-0.13,0.2-1.27,0.59-3.42
		c0.3-1.63,0.81-3.66,1.52-6.08c0.71-2.42,1.46-4.8,2.27-7.12c0.8-2.32,1.58-4.52,2.31-6.58c0.74-2.06,1.37-3.77,1.89-5.12
		l0.75-2.02c0.02-0.15,0.21-0.47,0.55-0.96c0.35-0.49,0.81-1.04,1.4-1.66c0.59-0.62,1.34-1.16,2.26-1.63
		c0.92-0.47,1.87-0.7,2.85-0.7H115.79z"/>
</g>
<g>
	<path class="st1" d="M274.39,156.84l31.85-26.25c1.59-1.33,4.04-0.96,5.17,0.77c0,0,21.87,31.99,21.87,31.99l-1.59,0.32
		c0.67-3.04,1.72-6.06,3.28-8.85c12.63-22.17,45.12-21,57.23,1.15c12.25,21.97-4.2,50.19-29.64,48.91
		c-3.19-0.18-6.29-0.91-9.21-1.98l0.91-1.3l27.63,32.44c1.46,1.68,1,4.37-0.94,5.47c0,0-52.45,31.73-52.45,31.73
		c-0.51,0.32-1.18-0.17-1.03-0.75c0.68-2.9,1.05-5.83,1-8.75c-0.29-11.44-7.54-22.36-18.23-26.56
		c-12.88-5.44-28.84,0.04-35.51,12.35c-8.52,14.84-1.19,34.95,15.11,41.07c0.43,0.17,0.7,0.57,0.73,1l0.12,1.98l0.02,0.31
		c0,0.04-0.02,0.08-0.05,0.1l-0.38,0.28c-0.04,0.02-31.35,23.43-31.39,23.45c-1.85,1.42-4.66,0.67-5.55-1.48
		c0,0-17.18-39.88-17.18-39.88l2.28-0.21c-4.48,20.18-28.13,30.53-46.3,21.02c-30.79-16.11-20.06-62.72,15.14-62.19
		c3.18,0.12,6.28,0.8,9.22,1.83c0.46,0.16,0.7,0.66,0.54,1.11c-0.15,0.42-0.6,0.66-1.02,0.56c-11.58-2.58-23.75,2.18-30.38,11.11
		c-8.54,11.03-7.46,27.86,2.63,37.55c15.08,14.99,41.03,8.17,47.84-11.71c0.36-0.98,1.78-1.07,2.27-0.18
		c0,0,21.86,37.52,21.86,37.52l-5.6-1.45l33.32-20.5l-0.43,0.39l0.31-0.04l0.85,2.98c-20.32-5.27-29.91-29.71-19.43-47.7
		c8.07-14.82,27.8-21.22,42.99-13.83c14.81,6.71,22.72,25.1,16.53,40.26c0,0-1.03-0.77-1.03-0.77l48.89-36.98l-0.94,5.47
		l-22.78-36.02c-0.42-0.59,0.18-1.45,0.86-1.31c24.15,4.85,44.3-19.9,32.33-41.95c-9.85-18.33-36.15-19.38-48.4-2.74
		c-1.73,2.31-3.12,4.89-4.27,7.62c-0.2,0.48-0.76,0.71-1.25,0.51c-0.13-0.05-0.24-0.13-0.33-0.23l-26.45-28.31l5.17,0.77
		l-36.04,20.12C274.41,157.15,274.26,156.93,274.39,156.84L274.39,156.84z"/>
</g>
</svg>
