<?xml version="1.0" encoding="utf-8"?>
<!-- Generator: Adobe Illustrator 26.0.3, SVG Export Plug-In . SVG Version: 6.00 Build 0)  -->
<svg version="1.1" id="Layer_1" xmlns="http://www.w3.org/2000/svg" xmlns:xlink="http://www.w3.org/1999/xlink" x="0px" y="0px"
	 viewBox="0 0 841.89 595.28" style="enable-background:new 0 0 841.89 595.28;" xml:space="preserve">
<style type="text/css">
	.st0{fill:#5069B1;}
	.st1{fill:#B98E70;}
</style>
<g>
	<path class="st0" d="M298.1,306.06"/>
</g>
<path class="st1" d="M380.65,308.57c-6.75,0.13-12.49,4.7-16.25,9.95c-7.84,9.92-4.83,22.63,6.69,27.92
	c0.07,0.03,0.14,0.06,0.21,0.09c-10.03,2.27-19.35,7.54-26.36,15.07c-5.67,6.15-9.78,14.29-9.34,22.87
	c0.56,14.56,13.3,16.38,24.26,10.59c1.95-0.93,3.59-2.09,5.35-3.15c1.57-1,0.08-3.38-1.51-2.38c-6.76,4.84-19.63,10.28-24.27,0.26
	c-4.52-13.43,5.62-26.81,16.71-33.63c6.97-4.34,15-6.97,23.16-7.36c0.7,0.01,1.35-0.31,1.87-0.61c1.49-0.78,1.82-2.83,0.15-3.66
	c-1.13-0.5-2.63-0.19-3.7-0.16c-7.01-0.07-13.79-6.61-13.98-13.64c-0.16-8.15,8.92-18.57,17.16-18.83
	c11.37-0.76,21.07,14.45,13.2,23.78c-0.17,0.21-0.16,0.52,0.04,0.72c0.21,0.21,0.55,0.21,0.76,0c1.49-1.48,2.68-3.32,3.34-5.37
	C401.49,320.28,391.82,308.24,380.65,308.57z M379.33,345.36l-0.03,0c0,0,0,0,0.01,0C379.44,345.35,379.32,345.36,379.33,345.36z"/>
<g>
	<path class="st0" d="M412.51,309.07c-2.74-25.76-28.28-46.29-53.1-32.23c-5.66,3.2-10.27,7.67-14.14,12.6
		c-2.74-4.1-5.92-7.92-10.01-10.85c-40.51-27.67-81.81,58.39-17.38,81.72c0.64,0.23,1.03-0.73,0.4-0.99
		c-11.01-4.77-21.15-12.65-26.18-23.68c-5.02-10.73-4.61-23.45-0.01-34.21c6.15-15.37,23.42-29.11,38.84-16.95
		c4.31,3.31,8.21,7.66,11.23,12.68c1.18,2.1,4.41,2.2,5.69,0.14c7.33-11.57,20.07-21.45,34.25-17.96
		c13.69,3.23,22.98,16.87,24.64,30.5c1.84,14.53-3.57,28.87-10.23,41.6c-7.1,12.96-16.69,24.82-27.88,34.48
		c-0.62,0.5-0.73,1.41-0.23,2.04c0.5,0.63,1.42,0.74,2.05,0.24c12.01-9.61,22.18-21.28,30.08-34.48
		C408.29,340.28,414.53,324.97,412.51,309.07z"/>
</g>
<g>
	<path class="st0" d="M373.81,220.34c-3.87-11.03-13.08-20.84-25.07-22.76c-14.84-2.62-27.89,7.42-36.13,18.96
		c-6.29-9.04-15.65-17.07-27.19-16.46c-18.92,1.38-30.8,21.02-32.54,38.36c-2.03,18.71,8.04,35.19,24.29,44.02
		c1.19,0.67,2.21-1.15,1.01-1.8c-4.92-2.82-9.49-6.29-13.18-10.59c-26.6-30.11,6.8-83.24,35.13-60.62c2.09,1.71,3.99,3.69,5.71,5.85
		c1.7,2.17,3.23,4.5,4.64,6.9c0.85,1.52,3.19,1.59,4.12,0.1c5.19-7.45,11.93-14.37,20.43-17.6c19.01-7.2,34.59,9.27,37,27.33
		c1.5,9.35-0.12,18.87-2.58,28c-0.26,1.05,1.22,1.54,1.66,0.55C376.32,248,378.62,233.45,373.81,220.34z"/>
</g>
<g>
	<g>
		<path class="st0" d="M195.93,330.57c-1.51-3.22-4.97-13.54-5.78-16.72c-0.12-0.47-0.23-0.89-0.23-1.2c0-0.74,0.5-1.2,1.4-1.2
			c1.55,0,2.44,1.44,2.87,3.26l2.64,11.76l5.55-10.79c0.66-1.32,1.24-1.78,1.98-1.78c0.7,0,0.85,0.43,0.85,0.85
			c0,0.19-0.04,0.47-0.19,1.01c-0.66,2.29-4.81,13.35-5.59,14.86c-0.31,0.62-0.82,1.16-1.75,1.16
			C196.78,331.77,196.27,331.31,195.93,330.57z"/>
	</g>
	<g>
		<path class="st0" d="M206.36,323.7c0-6.05,5.98-11.8,12.49-11.8c5.04,0,8.96,3.45,8.96,8.38c0,6.05-5.98,11.8-12.49,11.8
			C210.28,332.09,206.36,328.63,206.36,323.7z M224.48,320.99c0-3.18-2.41-5.51-5.78-5.51c-4.39,0-8.65,3.92-8.65,8.19
			c0,3.18,2.41,5.51,5.78,5.51C220.18,329.18,224.48,325.26,224.48,320.99z"/>
	</g>
	<g>
		<path class="st0" d="M229.84,323.7c0-6.05,5.98-11.8,12.49-11.8c5.04,0,8.96,3.45,8.96,8.38c0,6.05-5.98,11.8-12.49,11.8
			C233.76,332.09,229.84,328.63,229.84,323.7z M247.96,320.99c0-3.18-2.41-5.51-5.78-5.51c-4.39,0-8.65,3.92-8.65,8.19
			c0,3.18,2.41,5.51,5.78,5.51C243.65,329.18,247.96,325.26,247.96,320.99z"/>
	</g>
	<g>
		<path class="st0" d="M255.64,329.64c-0.93-6.48-1.79-12.61-1.79-13.85c0-0.89,0.47-1.59,1.36-1.59c1.4,0,2.37,1.75,2.37,3.41
			c0,1.59-0.04,3.41-0.16,4.81c1.86-5.78,5.63-10.24,9.66-10.24c1.2,0,2.02,1.32,2.02,2.48c0,1.24-0.89,1.47-2.33,1.86
			c-6.25,1.63-7.76,7.45-8.65,13.97c-0.12,0.82-0.62,1.13-1.2,1.13C255.99,331.62,255.8,330.73,255.64,329.64z"/>
	</g>
</g>
<g>
	<path class="st0" d="M401.56,251.35c-9.03,0-15.58-6.11-15.58-14.53c0-10.63,10.66-20.68,21.94-20.68
		c9.03,0,15.58,6.11,15.58,14.53C423.5,241.3,412.84,251.35,401.56,251.35z M407.64,221.44c-8.3,0-16.15,7.44-16.15,15.31
		c0,6.08,4.62,10.49,10.98,10.49c8.3,0,16.15-7.44,16.15-15.31C418.62,225.85,414.01,221.44,407.64,221.44z"/>
</g>
<g>
	<path class="st0" d="M445.73,251.35c-9.96,0-17.46-6.73-17.46-15.65c0-10.53,9.92-20.12,20.82-20.12c10.13,0,17.18,8.06,17.18,15.3
		c0,2.72-1.03,3.28-2.58,3.28h-13.91c-7.08,0-12.23-0.23-15.29-0.69l-0.62-0.09l-0.03,0.62c-0.19,3.84,0.79,6.93,2.94,9.19
		c2.26,2.38,5.67,3.64,9.86,3.64c4.56,0,9.22-1.5,13.11-4.23c1.14-0.8,1.67-1.16,2.47-1.16c1.02,0,1.74,0.54,1.74,1.32
		c0,0.6-0.36,1.24-1.09,1.98C459.04,248.69,452.16,251.35,445.73,251.35z M449.22,220.74c-6.52,0-12.38,3.8-14.58,9.45l-0.39,1
		l1.05-0.25c2.41-0.57,7.79-1.25,13.38-1.45l10.41-0.35c1.39,0,1.6-0.84,1.6-1.33c0-0.8-0.41-1.52-1.02-2.36
		C457.43,222.45,453.62,220.74,449.22,220.74z"/>
</g>
<g>
	<path class="st0" d="M487.24,251.35c-9.24,0-16.21-6.85-16.21-15.93c0-10.48,9.02-19,20.12-19c4.84,0,9.18,1.8,12.24,5.06
		l1.19,1.27l-0.21-1.73c-0.68-5.54-1.04-11.17-1.04-16.28c0-3.07,1.06-3.49,2.09-3.49c1.93,0,3.91,2.82,3.91,5.58
		c0,12.64-1.04,38.41-1.19,40.85c-0.18,2.82-1.21,2.82-1.6,2.82c-0.79,0-1.29-0.48-1.53-2.91c-0.14-1.5-0.28-3.06-0.35-4.58
		l-0.08-1.64l-0.95,1.34C499.84,248.04,493.56,251.35,487.24,251.35z M491.85,222c-8.31,0-15.59,6.93-15.59,14.82
		c0,6.08,4.79,10.49,11.4,10.49c8.38,0,15.73-6.8,15.73-14.54C503.39,226.52,498.54,222,491.85,222z"/>
</g>
<g>
	<path class="st0" d="M533.51,251.35c-9.96,0-17.46-6.73-17.46-15.65c0-10.53,9.92-20.12,20.82-20.12c10.13,0,17.18,8.06,17.18,15.3
		c0,2.72-1.03,3.28-2.58,3.28h-13.91c-7.08,0-12.23-0.23-15.29-0.69l-0.62-0.09l-0.03,0.62c-0.19,3.84,0.79,6.93,2.94,9.19
		c2.26,2.38,5.67,3.64,9.86,3.64c4.56,0,9.22-1.5,13.12-4.23c1.13-0.8,1.67-1.16,2.47-1.16c1.02,0,1.74,0.54,1.74,1.32
		c0,0.6-0.36,1.24-1.09,1.98C546.82,248.69,539.93,251.35,533.51,251.35z M537,220.74c-6.52,0-12.38,3.8-14.58,9.45l-0.39,1
		l1.05-0.25c2.41-0.57,7.79-1.25,13.38-1.45l10.41-0.35c1.39,0,1.6-0.84,1.6-1.33c0-0.8-0.41-1.52-1.02-2.36
		C545.21,222.45,541.4,220.74,537,220.74z"/>
</g>
<g>
	<path class="st0" d="M564.74,250.51c-1.12,0-1.44-0.95-1.75-3.08c-1.59-11.05-3.21-22.64-3.21-24.87c0-0.54,0.13-2.3,1.88-2.3
		c2.18,0,3.7,2.94,3.7,5.58c0,3.42-0.1,6.48-0.28,8.62l1.11,0.22c3.48-10.8,10.25-18.06,16.86-18.06c1.81,0,3.07,2.06,3.07,3.91
		c0,1.7-0.96,2.05-3.72,2.79c-12,3.13-14.51,14.38-16.05,25.64C566.2,249.99,565.66,250.51,564.74,250.51z"/>
</g>
<g>
	<path class="st0" d="M604.44,251.35c-5.5,0-10.07-2.13-13.97-6.52c-0.69-0.76-0.97-1.27-0.97-1.79c0-0.6,0.39-1.25,1.25-1.25
		c0.54,0,1.15,0.31,2.09,1.06c3.29,2.49,8.5,3.62,11.96,3.62c5.33,0,9.51-2.8,9.51-6.37c0-2.72-2.47-4.48-6.3-4.48
		c-0.86,0-2.59,0.09-4.27,0.18c-1.61,0.08-3.27,0.17-4.05,0.17c-4.6,0-9.36-3-9.36-8.03c0-5.57,6-11.8,14.04-11.8
		c4.75,0,9.85,2.24,9.85,5.58c0,0.83-0.26,1.11-1.04,1.11c-0.65,0-1.84-0.25-3.19-0.67c-1.62-0.49-3.28-0.72-5.2-0.72
		c-6.02,0-10.07,2.28-10.07,5.67c0,2.27,2.01,2.73,5.04,2.73h7.62c6.43,0,11.1,4.38,11.1,10.41
		C618.48,246.78,612.7,251.35,604.44,251.35z"/>
</g>
<g>
	<g>
		<path class="st0" d="M435.07,332.09c-9.03,0-15.58-6.11-15.58-14.53c0-10.63,10.66-20.68,21.94-20.68
			c9.03,0,15.58,6.11,15.58,14.53C457,322.04,446.34,332.09,435.07,332.09z M441.15,302.17c-8.3,0-16.15,7.44-16.15,15.31
			c0,6.08,4.62,10.49,10.98,10.49c8.3,0,16.15-7.44,16.15-15.31C452.12,306.59,447.51,302.17,441.15,302.17z"/>
	</g>
</g>
<g>
	<g>
		<path class="st0" d="M479.23,332.09c-9.96,0-17.46-6.73-17.46-15.65c0-10.53,9.92-20.12,20.82-20.12
			c10.13,0,17.18,8.06,17.18,15.3c0,2.72-1.03,3.28-2.58,3.28h-13.91c-7.08,0-12.23-0.23-15.29-0.69l-0.62-0.09l-0.03,0.62
			c-0.19,3.84,0.79,6.93,2.94,9.19c2.26,2.38,5.67,3.64,9.86,3.64c4.56,0,9.22-1.5,13.11-4.23c1.14-0.8,1.67-1.16,2.47-1.16
			c1.02,0,1.74,0.54,1.74,1.32c0,0.59-0.36,1.24-1.09,1.98C492.55,329.43,485.66,332.09,479.23,332.09z M482.73,301.48
			c-6.52,0-12.38,3.8-14.58,9.45l-0.39,1l1.05-0.25c2.42-0.57,7.79-1.25,13.38-1.45l10.41-0.35c1.39,0,1.6-0.84,1.6-1.33
			c0-0.8-0.41-1.52-1.02-2.36C490.93,303.19,487.13,301.48,482.73,301.48z"/>
	</g>
</g>
<g>
	<g>
		<path class="st0" d="M520.74,332.09c-9.24,0-16.21-6.85-16.21-15.93c0-10.48,9.03-19,20.12-19c4.84,0,9.18,1.8,12.24,5.06
			l1.19,1.27l-0.21-1.73c-0.68-5.54-1.04-11.17-1.04-16.28c0-3.07,1.06-3.49,2.09-3.49c1.93,0,3.91,2.82,3.91,5.58
			c0,12.64-1.04,38.41-1.19,40.85c-0.18,2.82-1.21,2.82-1.6,2.82c-0.79,0-1.29-0.48-1.53-2.91c-0.14-1.55-0.28-3.08-0.35-4.58
			l-0.07-1.65l-0.95,1.34C533.34,328.78,527.06,332.09,520.74,332.09z M525.36,302.73c-8.31,0-15.59,6.93-15.59,14.82
			c0,6.08,4.79,10.49,11.4,10.49c8.38,0,15.73-6.8,15.73-14.54C536.89,307.26,532.04,302.73,525.36,302.73z"/>
	</g>
</g>
<g>
	<g>
		<path class="st0" d="M567.01,332.09c-9.96,0-17.46-6.73-17.46-15.65c0-10.53,9.92-20.12,20.82-20.12
			c10.13,0,17.18,8.06,17.18,15.3c0,2.72-1.03,3.28-2.58,3.28h-13.91c-7.08,0-12.23-0.23-15.29-0.69l-0.62-0.09l-0.03,0.62
			c-0.19,3.84,0.79,6.93,2.94,9.19c2.26,2.38,5.67,3.64,9.86,3.64c4.56,0,9.22-1.5,13.12-4.23c1.13-0.8,1.67-1.16,2.47-1.16
			c1.02,0,1.74,0.54,1.74,1.32c0,0.59-0.36,1.24-1.09,1.98C580.32,329.43,573.44,332.09,567.01,332.09z M570.5,301.48
			c-6.52,0-12.38,3.8-14.58,9.45l-0.39,1l1.05-0.25c2.42-0.57,7.79-1.25,13.38-1.45l10.41-0.35c1.39,0,1.6-0.84,1.6-1.33
			c0-0.8-0.41-1.52-1.02-2.36C578.71,303.19,574.9,301.48,570.5,301.48z"/>
	</g>
</g>
<g>
	<path class="st0" d="M598.25,331.25c-1.12,0-1.44-0.95-1.74-3.08c-1.59-11.04-3.21-22.63-3.21-24.87c0-0.54,0.13-2.3,1.88-2.3
		c2.18,0,3.7,2.94,3.7,5.58c0,3.41-0.1,6.47-0.28,8.62l1.11,0.22c3.48-10.8,10.25-18.06,16.86-18.06c1.81,0,3.07,2.06,3.07,3.91
		c0,1.72-1.08,2.08-3.73,2.79c-12,3.13-14.5,14.38-16.04,25.64C599.71,330.73,599.16,331.25,598.25,331.25z"/>
</g>
<g>
	<path class="st0" d="M637.94,332.09c-5.5,0-10.07-2.13-13.97-6.52c-0.69-0.76-0.97-1.27-0.97-1.79c0-0.6,0.39-1.25,1.25-1.25
		c0.54,0,1.15,0.31,2.09,1.06c3.29,2.49,8.5,3.62,11.96,3.62c5.33,0,9.51-2.8,9.51-6.37c0-2.72-2.47-4.48-6.3-4.48
		c-0.86,0-2.59,0.09-4.27,0.18c-1.61,0.08-3.27,0.17-4.05,0.17c-4.6,0-9.36-3-9.36-8.03c0-5.57,6-11.8,14.04-11.8
		c4.75,0,9.85,2.24,9.85,5.58c0,0.83-0.26,1.11-1.04,1.11c-0.65,0-1.84-0.25-3.18-0.67c-1.63-0.5-3.28-0.73-5.2-0.73
		c-6.02,0-10.07,2.28-10.07,5.67c0,2.27,2.01,2.73,5.04,2.73h7.62c6.43,0,11.1,4.38,11.1,10.4
		C651.98,327.52,646.21,332.09,637.94,332.09z"/>
</g>
</svg>
